# xmcd
#
# Track frame offsets:
#	150
#	21771
#	34537
#	56119
#	68862
#	81828
#	103488
#	116449
#	130563
#	146493
#	160518
#	188998
#	205615
#	218791
#	235203
#	255585
#
# Disc length: 3709 seconds
#
# Revision: 1
# Processed by: cddbd v1.5.1PL2 Copyright (c) Steve Scherf et al.
# Submitted via: EasyCDDAExtractor 9.0.0.1
#
DISCID=da0e7b10
DTITLE=Tom Morrell and The Time-Warp Tophands - How The West Was Swung, Vol.7 (N
DTITLE=o Peddler's Allowed)
DYEAR=1995
DGENRE=Country
TTITLE0=Black Jack
TTITLE1=Steelin' The Blues
TTITLE2=Blue Steel Blues
TTITLE3=Station Break
TTITLE4=Pickled Beats
TTITLE5=Getting Sentimental Over You
TTITLE6=Under The Double Eagle
TTITLE7=Wear A Lei
TTITLE8=Teardrops In My Heart
TTITLE9=Twinkle, Twinkle, Little Star
TTITLE10=Captain Weird Goes Shopping
TTITLE11=My Best To You
TTITLE12=This Is Southland
TTITLE13=Liebestraum
TTITLE14=If I Had You
TTITLE15=Halfway To Nothin'
EXTD=
EXTT0=
EXTT1=
EXTT2=
EXTT3=
EXTT4=
EXTT5=
EXTT6=
EXTT7=
EXTT8=
EXTT9=
EXTT10=
EXTT11=
EXTT12=
EXTT13=
EXTT14=
EXTT15=
PLAYORDER=
